<?xml version="1.0" standalone="yes"?>
<!-- SVG graphic -->
<svg xmlns='http://www.w3.org/2000/svg' xmlns:xlink='http://www.w3.org/1999/xlink'
width="70px" height="70px" preserveAspectRatio="xMinYMin meet" viewBox="0 0 70 70" version="1.1">
<rect x="5" y="0" width="2.5" height="2.5" fill="rgb(215,0,39)"><title>(1,0 1968)</title></rect>
<rect x="10" y="0" width="2.5" height="2.5" fill="rgb(119,0,135)"><title>(2,0 1088)</title></rect>
<rect x="15" y="0" width="2.5" height="2.5" fill="rgb(86,0,168)"><title>(3,0 792)</title></rect>
<rect x="20" y="0" width="2.5" height="2.5" fill="rgb(60,0,194)"><title>(4,0 553)</title></rect>
<rect x="25" y="0" width="2.5" height="2.5" fill="rgb(37,0,217)"><title>(5,0 338)</title></rect>
<rect x="30" y="0" width="2.5" height="2.5" fill="rgb(26,0,228)"><title>(6,0 238)</title></rect>
<rect x="35" y="0" width="2.5" height="2.5" fill="rgb(25,0,229)"><title>(7,0 232)</title></rect>
<rect x="40" y="0" width="2.5" height="2.5" fill="rgb(19,0,235)"><title>(8,0 175)</title></rect>
<rect x="45" y="0" width="2.5" height="2.5" fill="rgb(4,0,250)"><title>(9,0 41)</title></rect>
<rect x="50" y="0" width="2.5" height="2.5" fill="rgb(6,0,248)"><title>(10,0 58)</title></rect>
<rect x="10" y="5" width="2.5" height="2.5" fill="rgb(255,0,0)"><title>(2,1 2327)</title></rect>
<rect x="15" y="5" width="2.5" height="2.5" fill="rgb(179,0,75)"><title>(3,1 1634)</title></rect>
<rect x="20" y="5" width="2.5" height="2.5" fill="rgb(130,0,124)"><title>(4,1 1191)</title></rect>
<rect x="25" y="5" width="2.5" height="2.5" fill="rgb(69,0,185)"><title>(5,1 634)</title></rect>
<rect x="30" y="5" width="2.5" height="2.5" fill="rgb(53,0,201)"><title>(6,1 491)</title></rect>
<rect x="35" y="5" width="2.5" height="2.5" fill="rgb(46,0,208)"><title>(7,1 423)</title></rect>
<rect x="40" y="5" width="2.5" height="2.5" fill="rgb(27,0,227)"><title>(8,1 252)</title></rect>
<rect x="45" y="5" width="2.5" height="2.5" fill="rgb(4,0,250)"><title>(9,1 40)</title></rect>
<rect x="50" y="5" width="2.5" height="2.5" fill="rgb(7,0,247)"><title>(10,1 69)</title></rect>
<rect x="15" y="10" width="2.5" height="2.5" fill="rgb(251,0,3)"><title>(3,2 2297)</title></rect>
<rect x="20" y="10" width="2.5" height="2.5" fill="rgb(175,0,79)"><title>(4,2 1604)</title></rect>
<rect x="25" y="10" width="2.5" height="2.5" fill="rgb(101,0,153)"><title>(5,2 926)</title></rect>
<rect x="30" y="10" width="2.5" height="2.5" fill="rgb(83,0,171)"><title>(6,2 759)</title></rect>
<rect x="35" y="10" width="2.5" height="2.5" fill="rgb(59,0,195)"><title>(7,2 541)</title></rect>
<rect x="40" y="10" width="2.5" height="2.5" fill="rgb(36,0,218)"><title>(8,2 333)</title></rect>
<rect x="45" y="10" width="2.5" height="2.5" fill="rgb(4,0,250)"><title>(9,2 37)</title></rect>
<rect x="50" y="10" width="2.5" height="2.5" fill="rgb(9,0,245)"><title>(10,2 84)</title></rect>
<rect x="20" y="15" width="2.5" height="2.5" fill="rgb(205,0,49)"><title>(4,3 1874)</title></rect>
<rect x="25" y="15" width="2.5" height="2.5" fill="rgb(120,0,134)"><title>(5,3 1098)</title></rect>
<rect x="30" y="15" width="2.5" height="2.5" fill="rgb(104,0,150)"><title>(6,3 953)</title></rect>
<rect x="35" y="15" width="2.5" height="2.5" fill="rgb(72,0,182)"><title>(7,3 661)</title></rect>
<rect x="40" y="15" width="2.5" height="2.5" fill="rgb(41,0,213)"><title>(8,3 383)</title></rect>
<rect x="45" y="15" width="2.5" height="2.5" fill="rgb(8,0,246)"><title>(9,3 76)</title></rect>
<rect x="50" y="15" width="2.5" height="2.5" fill="rgb(9,0,245)"><title>(10,3 87)</title></rect>
<rect x="25" y="20" width="2.5" height="2.5" fill="rgb(184,0,70)"><title>(5,4 1683)</title></rect>
<rect x="30" y="20" width="2.5" height="2.5" fill="rgb(130,0,124)"><title>(6,4 1189)</title></rect>
<rect x="35" y="20" width="2.5" height="2.5" fill="rgb(107,0,147)"><title>(7,4 981)</title></rect>
<rect x="40" y="20" width="2.5" height="2.5" fill="rgb(60,0,194)"><title>(8,4 554)</title></rect>
<rect x="45" y="20" width="2.5" height="2.5" fill="rgb(10,0,244)"><title>(9,4 92)</title></rect>
<rect x="50" y="20" width="2.5" height="2.5" fill="rgb(9,0,245)"><title>(10,4 91)</title></rect>
<rect x="30" y="25" width="2.5" height="2.5" fill="rgb(177,0,77)"><title>(6,5 1623)</title></rect>
<rect x="35" y="25" width="2.5" height="2.5" fill="rgb(122,0,132)"><title>(7,5 1119)</title></rect>
<rect x="40" y="25" width="2.5" height="2.5" fill="rgb(76,0,178)"><title>(8,5 697)</title></rect>
<rect x="45" y="25" width="2.5" height="2.5" fill="rgb(13,0,241)"><title>(9,5 119)</title></rect>
<rect x="50" y="25" width="2.5" height="2.5" fill="rgb(9,0,245)"><title>(10,5 85)</title></rect>
<rect x="35" y="30" width="2.5" height="2.5" fill="rgb(173,0,81)"><title>(7,6 1580)</title></rect>
<rect x="40" y="30" width="2.5" height="2.5" fill="rgb(102,0,152)"><title>(8,6 932)</title></rect>
<rect x="45" y="30" width="2.5" height="2.5" fill="rgb(21,0,233)"><title>(9,6 200)</title></rect>
<rect x="50" y="30" width="2.5" height="2.5" fill="rgb(14,0,240)"><title>(10,6 134)</title></rect>
<rect x="40" y="35" width="2.5" height="2.5" fill="rgb(170,0,84)"><title>(8,7 1554)</title></rect>
<rect x="45" y="35" width="2.5" height="2.5" fill="rgb(33,0,221)"><title>(9,7 307)</title></rect>
<rect x="50" y="35" width="2.5" height="2.5" fill="rgb(32,0,222)"><title>(10,7 299)</title></rect>
<rect x="45" y="40" width="2.5" height="2.5" fill="rgb(61,0,193)"><title>(9,8 560)</title></rect>
<rect x="50" y="40" width="2.5" height="2.5" fill="rgb(51,0,203)"><title>(10,8 471)</title></rect>
<rect x="50" y="45" width="2.5" height="2.5" fill="rgb(29,0,225)"><title>(10,9 272)</title></rect>
<text x="60" y="5" font-size="5" fill="black">0</text>
<text x="60" y="50" font-size="5" fill="black">11</text>
<polyline points="60,10,60,45" stroke="black" stroke-width="1" fill="none"></polyline>
<text x="5" y="60" font-size="5" fill="black">0</text>
<text x="50" y="60" font-size="5" fill="black">11</text>
<polyline points="10,60,45,60" stroke="black" stroke-width="1" fill="none"></polyline>
</svg>