<?xml version="1.0" standalone="yes"?>
<!-- SVG graphic -->
<svg xmlns='http://www.w3.org/2000/svg' xmlns:xlink='http://www.w3.org/1999/xlink'
width="70px" height="70px" preserveAspectRatio="xMinYMin meet" viewBox="0 0 70 70" version="1.1">
<rect x="5" y="0" width="2.5" height="2.5" fill="rgb(229,0,25)"><title>(1,0 2403)</title></rect>
<rect x="10" y="0" width="2.5" height="2.5" fill="rgb(140,0,114)"><title>(2,0 1470)</title></rect>
<rect x="15" y="0" width="2.5" height="2.5" fill="rgb(104,0,150)"><title>(3,0 1093)</title></rect>
<rect x="20" y="0" width="2.5" height="2.5" fill="rgb(85,0,169)"><title>(4,0 901)</title></rect>
<rect x="25" y="0" width="2.5" height="2.5" fill="rgb(54,0,200)"><title>(5,0 570)</title></rect>
<rect x="30" y="0" width="2.5" height="2.5" fill="rgb(43,0,211)"><title>(6,0 452)</title></rect>
<rect x="35" y="0" width="2.5" height="2.5" fill="rgb(44,0,210)"><title>(7,0 470)</title></rect>
<rect x="40" y="0" width="2.5" height="2.5" fill="rgb(35,0,219)"><title>(8,0 376)</title></rect>
<rect x="45" y="0" width="2.5" height="2.5" fill="rgb(14,0,240)"><title>(9,0 156)</title></rect>
<rect x="50" y="0" width="2.5" height="2.5" fill="rgb(26,0,228)"><title>(10,0 276)</title></rect>
<rect x="10" y="5" width="2.5" height="2.5" fill="rgb(255,0,0)"><title>(2,1 2672)</title></rect>
<rect x="15" y="5" width="2.5" height="2.5" fill="rgb(182,0,72)"><title>(3,1 1914)</title></rect>
<rect x="20" y="5" width="2.5" height="2.5" fill="rgb(137,0,117)"><title>(4,1 1445)</title></rect>
<rect x="25" y="5" width="2.5" height="2.5" fill="rgb(88,0,166)"><title>(5,1 932)</title></rect>
<rect x="30" y="5" width="2.5" height="2.5" fill="rgb(71,0,183)"><title>(6,1 754)</title></rect>
<rect x="35" y="5" width="2.5" height="2.5" fill="rgb(65,0,189)"><title>(7,1 690)</title></rect>
<rect x="40" y="5" width="2.5" height="2.5" fill="rgb(46,0,208)"><title>(8,1 483)</title></rect>
<rect x="45" y="5" width="2.5" height="2.5" fill="rgb(13,0,241)"><title>(9,1 144)</title></rect>
<rect x="50" y="5" width="2.5" height="2.5" fill="rgb(28,0,226)"><title>(10,1 301)</title></rect>
<rect x="15" y="10" width="2.5" height="2.5" fill="rgb(247,0,7)"><title>(3,2 2595)</title></rect>
<rect x="20" y="10" width="2.5" height="2.5" fill="rgb(181,0,73)"><title>(4,2 1898)</title></rect>
<rect x="25" y="10" width="2.5" height="2.5" fill="rgb(114,0,140)"><title>(5,2 1196)</title></rect>
<rect x="30" y="10" width="2.5" height="2.5" fill="rgb(88,0,166)"><title>(6,2 931)</title></rect>
<rect x="35" y="10" width="2.5" height="2.5" fill="rgb(79,0,175)"><title>(7,2 829)</title></rect>
<rect x="40" y="10" width="2.5" height="2.5" fill="rgb(53,0,201)"><title>(8,2 560)</title></rect>
<rect x="45" y="10" width="2.5" height="2.5" fill="rgb(12,0,242)"><title>(9,2 130)</title></rect>
<rect x="50" y="10" width="2.5" height="2.5" fill="rgb(26,0,228)"><title>(10,2 279)</title></rect>
<rect x="20" y="15" width="2.5" height="2.5" fill="rgb(215,0,39)"><title>(4,3 2253)</title></rect>
<rect x="25" y="15" width="2.5" height="2.5" fill="rgb(134,0,120)"><title>(5,3 1408)</title></rect>
<rect x="30" y="15" width="2.5" height="2.5" fill="rgb(112,0,142)"><title>(6,3 1178)</title></rect>
<rect x="35" y="15" width="2.5" height="2.5" fill="rgb(89,0,165)"><title>(7,3 935)</title></rect>
<rect x="40" y="15" width="2.5" height="2.5" fill="rgb(54,0,200)"><title>(8,3 575)</title></rect>
<rect x="45" y="15" width="2.5" height="2.5" fill="rgb(16,0,238)"><title>(9,3 175)</title></rect>
<rect x="50" y="15" width="2.5" height="2.5" fill="rgb(23,0,231)"><title>(10,3 248)</title></rect>
<rect x="25" y="20" width="2.5" height="2.5" fill="rgb(184,0,70)"><title>(5,4 1930)</title></rect>
<rect x="30" y="20" width="2.5" height="2.5" fill="rgb(135,0,119)"><title>(6,4 1415)</title></rect>
<rect x="35" y="20" width="2.5" height="2.5" fill="rgb(117,0,137)"><title>(7,4 1229)</title></rect>
<rect x="40" y="20" width="2.5" height="2.5" fill="rgb(70,0,184)"><title>(8,4 734)</title></rect>
<rect x="45" y="20" width="2.5" height="2.5" fill="rgb(18,0,236)"><title>(9,4 189)</title></rect>
<rect x="50" y="20" width="2.5" height="2.5" fill="rgb(24,0,230)"><title>(10,4 252)</title></rect>
<rect x="30" y="25" width="2.5" height="2.5" fill="rgb(184,0,70)"><title>(6,5 1930)</title></rect>
<rect x="35" y="25" width="2.5" height="2.5" fill="rgb(133,0,121)"><title>(7,5 1398)</title></rect>
<rect x="40" y="25" width="2.5" height="2.5" fill="rgb(85,0,169)"><title>(8,5 891)</title></rect>
<rect x="45" y="25" width="2.5" height="2.5" fill="rgb(23,0,231)"><title>(9,5 246)</title></rect>
<rect x="50" y="25" width="2.5" height="2.5" fill="rgb(26,0,228)"><title>(10,5 281)</title></rect>
<rect x="35" y="30" width="2.5" height="2.5" fill="rgb(187,0,67)"><title>(7,6 1963)</title></rect>
<rect x="40" y="30" width="2.5" height="2.5" fill="rgb(117,0,137)"><title>(8,6 1226)</title></rect>
<rect x="45" y="30" width="2.5" height="2.5" fill="rgb(29,0,225)"><title>(9,6 314)</title></rect>
<rect x="50" y="30" width="2.5" height="2.5" fill="rgb(31,0,223)"><title>(10,6 335)</title></rect>
<rect x="40" y="35" width="2.5" height="2.5" fill="rgb(180,0,74)"><title>(8,7 1894)</title></rect>
<rect x="45" y="35" width="2.5" height="2.5" fill="rgb(41,0,213)"><title>(9,7 430)</title></rect>
<rect x="50" y="35" width="2.5" height="2.5" fill="rgb(53,0,201)"><title>(10,7 565)</title></rect>
<rect x="45" y="40" width="2.5" height="2.5" fill="rgb(68,0,186)"><title>(9,8 718)</title></rect>
<rect x="50" y="40" width="2.5" height="2.5" fill="rgb(83,0,171)"><title>(10,8 871)</title></rect>
<rect x="50" y="45" width="2.5" height="2.5" fill="rgb(57,0,197)"><title>(10,9 602)</title></rect>
<text x="60" y="5" font-size="5" fill="black">0</text>
<text x="60" y="50" font-size="5" fill="black">11</text>
<polyline points="60,10,60,45" stroke="black" stroke-width="1" fill="none"></polyline>
<text x="5" y="60" font-size="5" fill="black">0</text>
<text x="50" y="60" font-size="5" fill="black">11</text>
<polyline points="10,60,45,60" stroke="black" stroke-width="1" fill="none"></polyline>
</svg>