<?xml version="1.0" standalone="yes"?>
<!-- SVG graphic -->
<svg xmlns='http://www.w3.org/2000/svg' xmlns:xlink='http://www.w3.org/1999/xlink'
width="70px" height="70px" preserveAspectRatio="xMinYMin meet" viewBox="0 0 70 70" version="1.1">
<rect x="5" y="0" width="2.5" height="2.5" fill="rgb(205,0,49)"><title>(1,0 1914)</title></rect>
<rect x="10" y="0" width="2.5" height="2.5" fill="rgb(117,0,137)"><title>(2,0 1095)</title></rect>
<rect x="15" y="0" width="2.5" height="2.5" fill="rgb(81,0,173)"><title>(3,0 762)</title></rect>
<rect x="20" y="0" width="2.5" height="2.5" fill="rgb(60,0,194)"><title>(4,0 561)</title></rect>
<rect x="25" y="0" width="2.5" height="2.5" fill="rgb(35,0,219)"><title>(5,0 327)</title></rect>
<rect x="30" y="0" width="2.5" height="2.5" fill="rgb(27,0,227)"><title>(6,0 254)</title></rect>
<rect x="35" y="0" width="2.5" height="2.5" fill="rgb(24,0,230)"><title>(7,0 228)</title></rect>
<rect x="40" y="0" width="2.5" height="2.5" fill="rgb(20,0,234)"><title>(8,0 186)</title></rect>
<rect x="45" y="0" width="2.5" height="2.5" fill="rgb(2,0,252)"><title>(9,0 22)</title></rect>
<rect x="50" y="0" width="2.5" height="2.5" fill="rgb(6,0,248)"><title>(10,0 57)</title></rect>
<rect x="10" y="5" width="2.5" height="2.5" fill="rgb(255,0,0)"><title>(2,1 2370)</title></rect>
<rect x="15" y="5" width="2.5" height="2.5" fill="rgb(180,0,74)"><title>(3,1 1674)</title></rect>
<rect x="20" y="5" width="2.5" height="2.5" fill="rgb(124,0,130)"><title>(4,1 1161)</title></rect>
<rect x="25" y="5" width="2.5" height="2.5" fill="rgb(74,0,180)"><title>(5,1 697)</title></rect>
<rect x="30" y="5" width="2.5" height="2.5" fill="rgb(52,0,202)"><title>(6,1 489)</title></rect>
<rect x="35" y="5" width="2.5" height="2.5" fill="rgb(46,0,208)"><title>(7,1 429)</title></rect>
<rect x="40" y="5" width="2.5" height="2.5" fill="rgb(27,0,227)"><title>(8,1 252)</title></rect>
<rect x="45" y="5" width="2.5" height="2.5" fill="rgb(3,0,251)"><title>(9,1 37)</title></rect>
<rect x="50" y="5" width="2.5" height="2.5" fill="rgb(6,0,248)"><title>(10,1 60)</title></rect>
<rect x="15" y="10" width="2.5" height="2.5" fill="rgb(241,0,13)"><title>(3,2 2248)</title></rect>
<rect x="20" y="10" width="2.5" height="2.5" fill="rgb(172,0,82)"><title>(4,2 1600)</title></rect>
<rect x="25" y="10" width="2.5" height="2.5" fill="rgb(103,0,151)"><title>(5,2 960)</title></rect>
<rect x="30" y="10" width="2.5" height="2.5" fill="rgb(79,0,175)"><title>(6,2 742)</title></rect>
<rect x="35" y="10" width="2.5" height="2.5" fill="rgb(59,0,195)"><title>(7,2 551)</title></rect>
<rect x="40" y="10" width="2.5" height="2.5" fill="rgb(34,0,220)"><title>(8,2 319)</title></rect>
<rect x="45" y="10" width="2.5" height="2.5" fill="rgb(5,0,249)"><title>(9,2 53)</title></rect>
<rect x="50" y="10" width="2.5" height="2.5" fill="rgb(7,0,247)"><title>(10,2 72)</title></rect>
<rect x="20" y="15" width="2.5" height="2.5" fill="rgb(203,0,51)"><title>(4,3 1890)</title></rect>
<rect x="25" y="15" width="2.5" height="2.5" fill="rgb(127,0,127)"><title>(5,3 1185)</title></rect>
<rect x="30" y="15" width="2.5" height="2.5" fill="rgb(101,0,153)"><title>(6,3 940)</title></rect>
<rect x="35" y="15" width="2.5" height="2.5" fill="rgb(69,0,185)"><title>(7,3 643)</title></rect>
<rect x="40" y="15" width="2.5" height="2.5" fill="rgb(41,0,213)"><title>(8,3 390)</title></rect>
<rect x="45" y="15" width="2.5" height="2.5" fill="rgb(7,0,247)"><title>(9,3 71)</title></rect>
<rect x="50" y="15" width="2.5" height="2.5" fill="rgb(6,0,248)"><title>(10,3 63)</title></rect>
<rect x="25" y="20" width="2.5" height="2.5" fill="rgb(168,0,86)"><title>(5,4 1563)</title></rect>
<rect x="30" y="20" width="2.5" height="2.5" fill="rgb(123,0,131)"><title>(6,4 1147)</title></rect>
<rect x="35" y="20" width="2.5" height="2.5" fill="rgb(104,0,150)"><title>(7,4 974)</title></rect>
<rect x="40" y="20" width="2.5" height="2.5" fill="rgb(59,0,195)"><title>(8,4 552)</title></rect>
<rect x="45" y="20" width="2.5" height="2.5" fill="rgb(9,0,245)"><title>(9,4 89)</title></rect>
<rect x="50" y="20" width="2.5" height="2.5" fill="rgb(10,0,244)"><title>(10,4 97)</title></rect>
<rect x="30" y="25" width="2.5" height="2.5" fill="rgb(171,0,83)"><title>(6,5 1592)</title></rect>
<rect x="35" y="25" width="2.5" height="2.5" fill="rgb(119,0,135)"><title>(7,5 1113)</title></rect>
<rect x="40" y="25" width="2.5" height="2.5" fill="rgb(71,0,183)"><title>(8,5 669)</title></rect>
<rect x="45" y="25" width="2.5" height="2.5" fill="rgb(13,0,241)"><title>(9,5 127)</title></rect>
<rect x="50" y="25" width="2.5" height="2.5" fill="rgb(9,0,245)"><title>(10,5 86)</title></rect>
<rect x="35" y="30" width="2.5" height="2.5" fill="rgb(166,0,88)"><title>(7,6 1545)</title></rect>
<rect x="40" y="30" width="2.5" height="2.5" fill="rgb(99,0,155)"><title>(8,6 929)</title></rect>
<rect x="45" y="30" width="2.5" height="2.5" fill="rgb(20,0,234)"><title>(9,6 190)</title></rect>
<rect x="50" y="30" width="2.5" height="2.5" fill="rgb(13,0,241)"><title>(10,6 130)</title></rect>
<rect x="40" y="35" width="2.5" height="2.5" fill="rgb(167,0,87)"><title>(8,7 1556)</title></rect>
<rect x="45" y="35" width="2.5" height="2.5" fill="rgb(32,0,222)"><title>(9,7 299)</title></rect>
<rect x="50" y="35" width="2.5" height="2.5" fill="rgb(31,0,223)"><title>(10,7 290)</title></rect>
<rect x="45" y="40" width="2.5" height="2.5" fill="rgb(58,0,196)"><title>(9,8 548)</title></rect>
<rect x="50" y="40" width="2.5" height="2.5" fill="rgb(52,0,202)"><title>(10,8 489)</title></rect>
<rect x="50" y="45" width="2.5" height="2.5" fill="rgb(31,0,223)"><title>(10,9 293)</title></rect>
<text x="60" y="5" font-size="5" fill="black">0</text>
<text x="60" y="50" font-size="5" fill="black">11</text>
<polyline points="60,10,60,45" stroke="black" stroke-width="1" fill="none"></polyline>
<text x="5" y="60" font-size="5" fill="black">0</text>
<text x="50" y="60" font-size="5" fill="black">11</text>
<polyline points="10,60,45,60" stroke="black" stroke-width="1" fill="none"></polyline>
</svg>