<?xml version="1.0" encoding="UTF-8" standalone="no"?>
<!DOCTYPE svg PUBLIC "-//W3C//DTD SVG 1.1//EN"
 "http://www.w3.org/Graphics/SVG/1.1/DTD/svg11.dtd">
<!-- Generated by graphviz version 2.40.1 (20161225.0304)
 -->
<!-- Title: 1 Pages: 1 -->
<svg width="273pt" height="268pt"
 viewBox="0.00 0.00 273.14 268.10" xmlns="http://www.w3.org/2000/svg" xmlns:xlink="http://www.w3.org/1999/xlink">
<g id="graph0" class="graph" transform="scale(1 1) rotate(0) translate(4 264.1018)">
<title>1</title>
<polygon fill="#ffffff" stroke="transparent" points="-4,4 -4,-264.1018 269.1367,-264.1018 269.1367,4 -4,4"/>
<!-- n9 -->
<g id="node1" class="node">
<title>n9</title>
<ellipse fill="none" stroke="#000000" cx="19.4983" cy="-146.5413" rx="19.4965" ry="19.4965"/>
<text text-anchor="middle" x="19.4983" y="-142.8413" font-family="Times,serif" font-size="14.00" fill="#000000">n9</text>
</g>
<!-- n10 -->
<g id="node2" class="node">
<title>n10</title>
<ellipse fill="none" stroke="#000000" cx="240.825" cy="-175.2835" rx="24.0958" ry="24.0958"/>
<text text-anchor="middle" x="240.825" y="-171.5835" font-family="Times,serif" font-size="14.00" fill="#000000">n10</text>
</g>
<!-- n9&#45;&#45;n10 -->
<g id="edge1" class="edge">
<title>n9&#45;&#45;n10</title>
<path fill="none" stroke="#000000" d="M39.1395,-149.092C79.7647,-154.3677 172.9002,-166.4625 216.9289,-172.1802"/>
</g>
<!-- n8 -->
<g id="node3" class="node">
<title>n8</title>
<ellipse fill="none" stroke="#000000" cx="122.2937" cy="-19.4983" rx="19.4965" ry="19.4965"/>
<text text-anchor="middle" x="122.2937" y="-15.7983" font-family="Times,serif" font-size="14.00" fill="#000000">n8</text>
</g>
<!-- n8&#45;&#45;n9 -->
<g id="edge3" class="edge">
<title>n8&#45;&#45;n9</title>
<path fill="none" stroke="#000000" d="M109.689,-35.0762C89.8526,-59.5917 51.5855,-106.8853 31.885,-131.2327"/>
</g>
<!-- n8&#45;&#45;n10 -->
<g id="edge2" class="edge">
<title>n8&#45;&#45;n10</title>
<path fill="none" stroke="#000000" d="M134.3114,-35.2931C156.2057,-64.0687 202.5126,-124.9297 226.1997,-156.0616"/>
</g>
<!-- n7 -->
<g id="node4" class="node">
<title>n7</title>
<ellipse fill="none" stroke="#000000" cx="122.885" cy="-240.6036" rx="19.4965" ry="19.4965"/>
<text text-anchor="middle" x="122.885" y="-236.9036" font-family="Times,serif" font-size="14.00" fill="#000000">n7</text>
</g>
<!-- n7&#45;&#45;n9 -->
<g id="edge5" class="edge">
<title>n7&#45;&#45;n9</title>
<path fill="none" stroke="#000000" d="M108.0722,-227.1267C88.3067,-209.1439 53.5311,-177.5047 33.9503,-159.6899"/>
</g>
<!-- n7&#45;&#45;n10 -->
<g id="edge4" class="edge">
<title>n7&#45;&#45;n10</title>
<path fill="none" stroke="#000000" d="M140.0345,-231.1055C161.1173,-219.4289 196.8935,-199.6146 219.6641,-187.0032"/>
</g>
<!-- n7&#45;&#45;n8 -->
<g id="edge6" class="edge">
<title>n7&#45;&#45;n8</title>
<path fill="none" stroke="#000000" d="M122.8325,-220.982C122.7203,-179.0234 122.4582,-80.9952 122.3461,-39.0759"/>
</g>
<!-- n6 -->
<g id="node5" class="node">
<title>n6</title>
<ellipse fill="none" stroke="#000000" cx="189.7518" cy="-226.8296" rx="19.4965" ry="19.4965"/>
<text text-anchor="middle" x="189.7518" y="-223.1296" font-family="Times,serif" font-size="14.00" fill="#000000">n6</text>
</g>
<!-- n6&#45;&#45;n9 -->
<g id="edge8" class="edge">
<title>n6&#45;&#45;n9</title>
<path fill="none" stroke="#000000" d="M171.8535,-218.3891C139.0695,-202.9288 69.7617,-170.2446 37.1568,-154.8687"/>
</g>
<!-- n6&#45;&#45;n10 -->
<g id="edge7" class="edge">
<title>n6&#45;&#45;n10</title>
<path fill="none" stroke="#000000" d="M203.7078,-212.7444C209.851,-206.5443 217.1287,-199.1992 223.6051,-192.6628"/>
</g>
<!-- n6&#45;&#45;n8 -->
<g id="edge9" class="edge">
<title>n6&#45;&#45;n8</title>
<path fill="none" stroke="#000000" d="M183.6464,-208.0647C170.8031,-168.5911 141.1253,-77.3768 128.3368,-38.0714"/>
</g>
<!-- n6&#45;&#45;n7 -->
<g id="edge10" class="edge">
<title>n6&#45;&#45;n7</title>
<path fill="none" stroke="#000000" d="M170.4112,-230.8136C161.617,-232.6251 151.2305,-234.7646 142.4138,-236.5808"/>
</g>
<!-- n5 -->
<g id="node6" class="node">
<title>n5</title>
<ellipse fill="none" stroke="#000000" cx="61.5283" cy="-211.149" rx="19.4965" ry="19.4965"/>
<text text-anchor="middle" x="61.5283" y="-207.449" font-family="Times,serif" font-size="14.00" fill="#000000">n5</text>
</g>
<!-- n5&#45;&#45;n9 -->
<g id="edge12" class="edge">
<title>n5&#45;&#45;n9</title>
<path fill="none" stroke="#000000" d="M50.7045,-194.5109C44.3806,-184.7899 36.4322,-172.5717 30.1399,-162.8993"/>
</g>
<!-- n5&#45;&#45;n10 -->
<g id="edge11" class="edge">
<title>n5&#45;&#45;n10</title>
<path fill="none" stroke="#000000" d="M80.7162,-207.3107C113.69,-200.7148 181.0197,-187.2466 216.9637,-180.0566"/>
</g>
<!-- n5&#45;&#45;n8 -->
<g id="edge13" class="edge">
<title>n5&#45;&#45;n8</title>
<path fill="none" stroke="#000000" d="M67.4654,-192.4237C79.0823,-155.7846 104.6963,-74.9996 116.3326,-38.2995"/>
</g>
<!-- n5&#45;&#45;n7 -->
<g id="edge14" class="edge">
<title>n5&#45;&#45;n7</title>
<path fill="none" stroke="#000000" d="M79.2752,-219.6685C87.3447,-223.5423 96.8753,-228.1175 104.9654,-232.0012"/>
</g>
<!-- n5&#45;&#45;n6 -->
<g id="edge15" class="edge">
<title>n5&#45;&#45;n6</title>
<path fill="none" stroke="#000000" d="M81.0027,-213.5305C105.103,-216.4778 145.9096,-221.4681 170.0942,-224.4256"/>
</g>
<!-- n4 -->
<g id="node7" class="node">
<title>n4</title>
<ellipse fill="none" stroke="#000000" cx="47.852" cy="-52.4059" rx="19.4965" ry="19.4965"/>
<text text-anchor="middle" x="47.852" y="-48.7059" font-family="Times,serif" font-size="14.00" fill="#000000">n4</text>
</g>
<!-- n4&#45;&#45;n9 -->
<g id="edge17" class="edge">
<title>n4&#45;&#45;n9</title>
<path fill="none" stroke="#000000" d="M42.1142,-71.4556C37.1626,-87.8951 30.0515,-111.5043 25.1308,-127.8412"/>
</g>
<!-- n4&#45;&#45;n10 -->
<g id="edge16" class="edge">
<title>n4&#45;&#45;n10</title>
<path fill="none" stroke="#000000" d="M64.3048,-62.8824C99.4868,-85.2849 181.9505,-137.7945 220.4074,-162.2824"/>
</g>
<!-- n4&#45;&#45;n8 -->
<g id="edge18" class="edge">
<title>n4&#45;&#45;n8</title>
<path fill="none" stroke="#000000" d="M65.8723,-44.4399C77.5764,-39.266 92.7685,-32.5502 104.4394,-27.3909"/>
</g>
<!-- n4&#45;&#45;n7 -->
<g id="edge19" class="edge">
<title>n4&#45;&#45;n7</title>
<path fill="none" stroke="#000000" d="M55.1831,-70.7937C69.5646,-106.8652 101.3184,-186.5104 115.6346,-222.4182"/>
</g>
<!-- n4&#45;&#45;n6 -->
<g id="edge20" class="edge">
<title>n4&#45;&#45;n6</title>
<path fill="none" stroke="#000000" d="M60.1965,-67.5797C87.033,-100.5672 150.4327,-178.4983 177.3349,-211.5667"/>
</g>
<!-- n4&#45;&#45;n5 -->
<g id="edge21" class="edge">
<title>n4&#45;&#45;n5</title>
<path fill="none" stroke="#000000" d="M49.529,-71.8709C52.1539,-102.338 57.2044,-160.9599 59.8376,-191.5247"/>
</g>
<!-- n3 -->
<g id="node8" class="node">
<title>n3</title>
<ellipse fill="none" stroke="#000000" cx="245.6385" cy="-95.2811" rx="19.4965" ry="19.4965"/>
<text text-anchor="middle" x="245.6385" y="-91.5811" font-family="Times,serif" font-size="14.00" fill="#000000">n3</text>
</g>
<!-- n3&#45;&#45;n9 -->
<g id="edge23" class="edge">
<title>n3&#45;&#45;n9</title>
<path fill="none" stroke="#000000" d="M226.3579,-99.6515C183.6336,-109.336 81.4089,-132.5077 38.7301,-142.1819"/>
</g>
<!-- n3&#45;&#45;n10 -->
<g id="edge22" class="edge">
<title>n3&#45;&#45;n10</title>
<path fill="none" stroke="#000000" d="M244.4486,-115.057C243.7916,-125.977 242.9704,-139.6261 242.2759,-151.1682"/>
</g>
<!-- n3&#45;&#45;n8 -->
<g id="edge24" class="edge">
<title>n3&#45;&#45;n8</title>
<path fill="none" stroke="#000000" d="M229.0036,-85.0607C205.4625,-70.597 162.671,-44.306 139.0589,-29.7988"/>
</g>
<!-- n3&#45;&#45;n7 -->
<g id="edge25" class="edge">
<title>n3&#45;&#45;n7</title>
<path fill="none" stroke="#000000" d="M232.964,-110.2858C209.4416,-138.133 159.2833,-197.5132 135.6744,-225.4628"/>
</g>
<!-- n3&#45;&#45;n6 -->
<g id="edge26" class="edge">
<title>n3&#45;&#45;n6</title>
<path fill="none" stroke="#000000" d="M237.9849,-113.2965C227.3424,-138.3471 208.1809,-183.4504 197.4924,-208.6096"/>
</g>
<!-- n3&#45;&#45;n5 -->
<g id="edge27" class="edge">
<title>n3&#45;&#45;n5</title>
<path fill="none" stroke="#000000" d="M228.9752,-105.768C194.0112,-127.7722 113.3332,-178.5461 78.2866,-200.6023"/>
</g>
<!-- n3&#45;&#45;n4 -->
<g id="edge28" class="edge">
<title>n3&#45;&#45;n4</title>
<path fill="none" stroke="#000000" d="M226.3138,-91.092C188.4044,-82.8742 104.7013,-64.7294 66.964,-56.5489"/>
</g>
<!-- n2 -->
<g id="node9" class="node">
<title>n2</title>
<ellipse fill="none" stroke="#000000" cx="84.8559" cy="-114.0641" rx="19.4965" ry="19.4965"/>
<text text-anchor="middle" x="84.8559" y="-110.3641" font-family="Times,serif" font-size="14.00" fill="#000000">n2</text>
</g>
<!-- n2&#45;&#45;n9 -->
<g id="edge30" class="edge">
<title>n2&#45;&#45;n9</title>
<path fill="none" stroke="#000000" d="M67.3413,-122.7674C57.9639,-127.4271 46.446,-133.1506 37.0613,-137.814"/>
</g>
<!-- n2&#45;&#45;n10 -->
<g id="edge29" class="edge">
<title>n2&#45;&#45;n10</title>
<path fill="none" stroke="#000000" d="M103.0528,-121.2065C131.66,-132.4351 187.0926,-154.193 218.2161,-166.4093"/>
</g>
<!-- n2&#45;&#45;n8 -->
<g id="edge31" class="edge">
<title>n2&#45;&#45;n8</title>
<path fill="none" stroke="#000000" d="M92.0743,-95.8308C98.7037,-79.0854 108.4751,-54.4033 115.0975,-37.6755"/>
</g>
<!-- n2&#45;&#45;n7 -->
<g id="edge32" class="edge">
<title>n2&#45;&#45;n7</title>
<path fill="none" stroke="#000000" d="M90.5493,-133.0083C97.7185,-156.8636 109.9652,-197.6136 117.1527,-221.5298"/>
</g>
<!-- n2&#45;&#45;n6 -->
<g id="edge33" class="edge">
<title>n2&#45;&#45;n6</title>
<path fill="none" stroke="#000000" d="M98.1411,-128.3459C118.208,-149.9183 156.0453,-190.5943 176.2432,-212.3076"/>
</g>
<!-- n2&#45;&#45;n5 -->
<g id="edge34" class="edge">
<title>n2&#45;&#45;n5</title>
<path fill="none" stroke="#000000" d="M80.2472,-133.2449C76.1575,-150.2652 70.2143,-174.9997 66.1275,-192.008"/>
</g>
<!-- n2&#45;&#45;n4 -->
<g id="edge35" class="edge">
<title>n2&#45;&#45;n4</title>
<path fill="none" stroke="#000000" d="M74.7445,-97.2157C69.5232,-88.5157 63.1708,-77.931 57.9513,-69.2339"/>
</g>
<!-- n2&#45;&#45;n3 -->
<g id="edge36" class="edge">
<title>n2&#45;&#45;n3</title>
<path fill="none" stroke="#000000" d="M104.2501,-111.7984C135.1532,-108.1882 195.2292,-101.17 226.1756,-97.5548"/>
</g>
<!-- n1 -->
<g id="node10" class="node">
<title>n1</title>
<ellipse fill="none" stroke="#000000" cx="195.0339" cy="-34.2933" rx="19.4965" ry="19.4965"/>
<text text-anchor="middle" x="195.0339" y="-30.5933" font-family="Times,serif" font-size="14.00" fill="#000000">n1</text>
</g>
<!-- n1&#45;&#45;n9 -->
<g id="edge38" class="edge">
<title>n1&#45;&#45;n9</title>
<path fill="none" stroke="#000000" d="M178.52,-44.8533C145.0643,-66.2468 69.622,-114.4891 36.0962,-135.9275"/>
</g>
<!-- n1&#45;&#45;n10 -->
<g id="edge37" class="edge">
<title>n1&#45;&#45;n10</title>
<path fill="none" stroke="#000000" d="M201.1146,-53.0157C209.4349,-78.6337 224.3578,-124.5814 233.3504,-152.2692"/>
</g>
<!-- n1&#45;&#45;n8 -->
<g id="edge39" class="edge">
<title>n1&#45;&#45;n8</title>
<path fill="none" stroke="#000000" d="M175.9223,-30.4061C165.3148,-28.2485 152.1577,-25.5724 141.5303,-23.4109"/>
</g>
<!-- n1&#45;&#45;n7 -->
<g id="edge40" class="edge">
<title>n1&#45;&#45;n7</title>
<path fill="none" stroke="#000000" d="M188.5039,-52.9658C174.7676,-92.2449 143.026,-183.0101 129.3482,-222.1219"/>
</g>
<!-- n1&#45;&#45;n6 -->
<g id="edge41" class="edge">
<title>n1&#45;&#45;n6</title>
<path fill="none" stroke="#000000" d="M194.4984,-53.8142C193.486,-90.7167 191.3023,-170.3147 190.2888,-207.257"/>
</g>
<!-- n1&#45;&#45;n5 -->
<g id="edge42" class="edge">
<title>n1&#45;&#45;n5</title>
<path fill="none" stroke="#000000" d="M183.1862,-49.988C157.8512,-83.5494 98.6608,-161.9593 73.3495,-195.4894"/>
</g>
<!-- n1&#45;&#45;n4 -->
<g id="edge43" class="edge">
<title>n1&#45;&#45;n4</title>
<path fill="none" stroke="#000000" d="M175.4893,-36.6985C147.3387,-40.1628 95.673,-46.5209 67.4775,-49.9907"/>
</g>
<!-- n1&#45;&#45;n3 -->
<g id="edge44" class="edge">
<title>n1&#45;&#45;n3</title>
<path fill="none" stroke="#000000" d="M207.5429,-49.3689C215.2698,-58.6812 225.1568,-70.5968 232.9219,-79.9553"/>
</g>
<!-- n1&#45;&#45;n2 -->
<g id="edge45" class="edge">
<title>n1&#45;&#45;n2</title>
<path fill="none" stroke="#000000" d="M178.7768,-46.0637C157.8261,-61.2324 121.6297,-87.4392 100.8216,-102.5047"/>
</g>
<!-- n0 -->
<g id="node11" class="node">
<title>n0</title>
<ellipse fill="none" stroke="#000000" cx="167.6056" cy="-125.3679" rx="19.4965" ry="19.4965"/>
<text text-anchor="middle" x="167.6056" y="-121.6679" font-family="Times,serif" font-size="14.00" fill="#000000">n0</text>
</g>
<!-- n0&#45;&#45;n9 -->
<g id="edge47" class="edge">
<title>n0&#45;&#45;n9</title>
<path fill="none" stroke="#000000" d="M148.2431,-128.136C119.8585,-132.1938 67.2528,-139.7143 38.8655,-143.7726"/>
</g>
<!-- n0&#45;&#45;n10 -->
<g id="edge46" class="edge">
<title>n0&#45;&#45;n10</title>
<path fill="none" stroke="#000000" d="M183.8553,-136.4458C194.7251,-143.856 209.106,-153.6598 220.6994,-161.5634"/>
</g>
<!-- n0&#45;&#45;n8 -->
<g id="edge48" class="edge">
<title>n0&#45;&#45;n8</title>
<path fill="none" stroke="#000000" d="M159.919,-107.4086C151.5868,-87.9405 138.365,-57.0482 130.018,-37.5457"/>
</g>
<!-- n0&#45;&#45;n7 -->
<g id="edge49" class="edge">
<title>n0&#45;&#45;n7</title>
<path fill="none" stroke="#000000" d="M160.5195,-143.6274C152.1949,-165.078 138.46,-200.47 130.086,-222.048"/>
</g>
<!-- n0&#45;&#45;n6 -->
<g id="edge50" class="edge">
<title>n0&#45;&#45;n6</title>
<path fill="none" stroke="#000000" d="M171.7711,-144.4521C175.7055,-162.477 181.5769,-189.3766 185.5297,-207.4861"/>
</g>
<!-- n0&#45;&#45;n5 -->
<g id="edge51" class="edge">
<title>n0&#45;&#45;n5</title>
<path fill="none" stroke="#000000" d="M152.4073,-137.6583C132.242,-153.9652 96.8495,-182.5859 76.6984,-198.8814"/>
</g>
<!-- n0&#45;&#45;n4 -->
<g id="edge52" class="edge">
<title>n0&#45;&#45;n4</title>
<path fill="none" stroke="#000000" d="M150.9544,-115.2229C128.2036,-101.3616 87.6256,-76.6387 64.7479,-62.7"/>
</g>
<!-- n0&#45;&#45;n3 -->
<g id="edge53" class="edge">
<title>n0&#45;&#45;n3</title>
<path fill="none" stroke="#000000" d="M186.0983,-118.2378C198.5374,-113.4417 214.8672,-107.1454 227.2785,-102.3601"/>
</g>
<!-- n0&#45;&#45;n2 -->
<g id="edge54" class="edge">
<title>n0&#45;&#45;n2</title>
<path fill="none" stroke="#000000" d="M147.9951,-122.6891C134.8041,-120.8872 117.4872,-118.5216 104.3257,-116.7237"/>
</g>
<!-- n0&#45;&#45;n1 -->
<g id="edge55" class="edge">
<title>n0&#45;&#45;n1</title>
<path fill="none" stroke="#000000" d="M173.2887,-106.4972C177.9961,-90.8665 184.6527,-68.7638 189.358,-53.1398"/>
</g>
</g>
</svg>
